<svg width="34" height="34" viewBox="0 0 34 34" fill="none" xmlns="http://www.w3.org/2000/svg">
<g id="Frame 49">
<circle id="Ellipse 11" cx="17.1288" cy="16.9111" r="16.1796" fill="white"/>
<path id="heart" fill-rule="evenodd" clip-rule="evenodd" d="M16.7193 12.7121C15.3445 11.1099 13.0519 10.6789 11.3293 12.146C9.60674 13.6131 9.36423 16.0661 10.717 17.8013C11.8417 19.244 15.2454 22.2867 16.361 23.2716C16.4858 23.3817 16.5482 23.4368 16.621 23.4585C16.6845 23.4774 16.754 23.4774 16.8176 23.4585C16.8904 23.4368 16.9528 23.3817 17.0776 23.2716C18.1931 22.2867 21.5969 19.244 22.7216 17.8013C24.0743 16.0661 23.8614 13.5977 22.1093 12.146C20.3571 10.6943 18.0941 11.1099 16.7193 12.7121Z" stroke="#3C4242" stroke-width="1.26066" stroke-linecap="round" stroke-linejoin="round"/>
</g>
</svg>
